PathFileType	4	(X/Y/Z)	/Users/itak/Documents/Research/Walk-IL/dataset/trc/00560_00009.trc
DataRate	CameraRate	NumFrames	NumMarkers	Units	OrigDataRate	OrigDataStartFrame	OrigNumFrames
100.000000	100.000000	4	54	mm	100.000000	250	400
Frame#	Time	RPSI			LPSI			L3			STRN			T10			C7			CLAV			RBAK			LBAK			LSHO			LUPA			LAEL			LAOL			LWTS			LWPS			LFRA			LHPS			RSHO			RUPA			RAEL			RAOL			RWTS			RWPS			RFRA			RIFD			RHTS			RHPS			RBHD			LFHD			RFHD			LBHD			LHIP			RHIP			RASI			LASI			LKNE			LTHI			LANK			LTIP			LTOE			LMT1			LMT5			LHEE			RKNE			RTHI			RANK			RTIP			RTOE			RMT1			RMT5			RHEE			LIFD			LHTS			*53			
		X1	Y1	Z1	X2	Y2	Z2	X3	Y3	Z3	X4	Y4	Z4	X5	Y5	Z5	X6	Y6	Z6	X7	Y7	Z7	X8	Y8	Z8	X9	Y9	Z9	X10	Y10	Z10	X11	Y11	Z11	X12	Y12	Z12	X13	Y13	Z13	X14	Y14	Z14	X15	Y15	Z15	X16	Y16	Z16	X17	Y17	Z17	X18	Y18	Z18	X19	Y19	Z19	X20	Y20	Z20	X21	Y21	Z21	X22	Y22	Z22	X23	Y23	Z23	X24	Y24	Z24	X25	Y25	Z25	X26	Y26	Z26	X27	Y27	Z27	X28	Y28	Z28	X29	Y29	Z29	X30	Y30	Z30	X31	Y31	Z31	X32	Y32	Z32	X33	Y33	Z33	X34	Y34	Z34	X35	Y35	Z35	X36	Y36	Z36	X37	Y37	Z37	X38	Y38	Z38	X39	Y39	Z39	X40	Y40	Z40	X41	Y41	Z41	X42	Y42	Z42	X43	Y43	Z43	X44	Y44	Z44	X45	Y45	Z45	X46	Y46	Z46	X47	Y47	Z47	X48	Y48	Z48	X49	Y49	Z49	X50	Y50	Z50	X51	Y51	Z51	X52	Y52	Z52	X53	Y53	Z53	X54	Y54	Z54	

251	2.5	723.3651123046875	937.5999145507812	410.6936950683594	777.4805297851562	940.3540649414062	287.97021484375	751.27001953125	1045.81884765625	351.3949279785156	976.9347534179688	1244.97998046875	412.0671997070312	742.720947265625	1170.785766601562	352.1340026855469	773.7003784179688	1447.703247070312	386.3922424316406	951.9879760742188	1354.44580078125	406.5963439941406	691.0639038085938	1317.227905273438	454.8745727539062	759.1124267578125	1393.928588867188	291.7558898925781	866.5726928710938	1426.009399414062	229.4775543212891	854.9197387695312	1312.72607421875	135.6335296630859	840.2390747070312	1111.59912109375	74.30303192138672	749.1568603515625	1092.418823242188	119.3316192626953	999.1450805664062	923.03369140625	145.6189117431641	975.8985595703125	883.599853515625	71.30821228027344	885.9266967773438	1039.25048828125	70.58287048339844	1006.599548339844	833.0796508789062	82.24451446533203	804.2604370117188	1410.061889648438	546.6533203125	776.1597900390625	1346.21435546875	609.36767578125	780.204833984375	1067.490112304688	678.7361450195312	735.74169921875	1036.92041015625	646.3744506835938	979.3668823242188	907.4163818359375	672.614501953125	932.503173828125	870.4439697265625	728.3421020507812	803.8472290039062	1015.660095214844	690.0826416015625	1061.274536132812	763.2171630859375	700.7670288085938	1039.5625	844.0640869140625	708.9315185546875	980.3456420898438	816.0877685546875	743.6593017578125	870.9148559570312	1634.39599609375	479.6831970214844	1046.722900390625	1627.210815429688	368.73388671875	1007.973693847656	1622.682739257812	508.1863403320312	921.2876586914062	1636.1162109375	322.4154968261719	958.2289428710938	888.06396484375	221.9778137207031	801.8726806640625	879.974609375	570.9356079101562	897.89404296875	923.3009643554688	551.3638305664062	1004.186706542969	922.5906372070312	297.7867736816406	1170.084838867188	512.2477416992188	357.9950256347656	1096.949096679688	655.3305053710938	293.0339660644531	1128.950073242188	34.07802581787109	361.9178161621094	1145.407104492188	253.7424163818359	355.5924072265625	1307.374267578125	36.2504768371582	501.453369140625	1222.597900390625	45.22478866577148	503.0448303222656	1246.572021484375	35.99152374267578	396.2589416503906	1045.567504882812	31.3345890045166	386.1296691894531	910.0372314453125	447.7193603515625	578.3287353515625	863.2108764648438	735.7932739257812	590.2661743164062	548.6441650390625	182.7693939208984	395.8770751953125	834.2050170898438	331.9904479980469	530.2468872070312	720.3538208007812	44.26750564575195	431.2761535644531	694.9593505859375	84.83914184570312	372.0693054199219	629.6727294921875	94.83631134033203	452.4079284667969	533.4524536132812	211.3833465576172	324.7659606933594	1057.833251953125	764.9124755859375	150.2206878662109	1047.165771484375	859.061279296875	130.6825103759766	nan	nan	nan	
252	2.51	731.2925415039062	936.4061889648438	412.6958923339844	785.8970947265625	940.150634765625	290.0436096191406	759.6857299804688	1045.872680664062	354.0419921875	986.343017578125	1243.762084960938	415.9500122070312	751.3021850585938	1170.956909179688	354.6191101074219	784.4083862304688	1447.750610351562	389.2595825195312	962.0914306640625	1353.372802734375	410.4900817871094	700.6685180664062	1317.81298828125	457.6441650390625	770.109619140625	1394.256958007812	294.1393432617188	878.56640625	1425.562622070312	232.6463775634766	869.3956909179688	1310.86376953125	139.8055267333984	860.0582275390625	1108.9287109375	79.19473266601562	768.0609130859375	1088.678833007812	122.3354644775391	1017.26025390625	919.9183349609375	153.6453857421875	996.9177856445312	881.8588256835938	77.85959625244141	906.289794921875	1036.768188476562	76.30028533935547	1027.527221679688	831.2763671875	89.09039306640625	814.5103759765625	1409.643188476562	549.874267578125	786.3959350585938	1345.562622070312	612.3956909179688	790.1403198242188	1066.500854492188	680.5068969726562	745.4937133789062	1036.168701171875	648.0408935546875	988.5598754882812	905.3843994140625	675.2396240234375	940.9660034179688	868.6256103515625	730.526123046875	813.57080078125	1014.470947265625	691.834228515625	1069.726806640625	761.0645751953125	704.9276123046875	1048.101684570312	842.01513671875	712.3547973632812	988.3729248046875	814.3007202148438	746.5399780273438	882.3392333984375	1633.839233398438	483.0743713378906	1058.022583007812	1626.001098632812	372.0122375488281	1019.36328125	1621.7666015625	511.4923095703125	932.6055297851562	1635.201293945312	325.7943115234375	967.1309814453125	888.5684814453125	224.0235290527344	810.4091796875	878.50927734375	572.8159790039062	906.0021362304688	922.3591918945312	553.366455078125	1012.950012207031	922.7771606445312	299.8428039550781	1178.018310546875	511.885009765625	360.9452819824219	1105.70556640625	655.5160522460938	295.7650146484375	1129.004638671875	34.46129608154297	362.0958557128906	1149.413696289062	253.6526947021484	357.0750122070312	1307.686889648438	36.0841178894043	501.6387939453125	1222.76611328125	45.21282196044922	503.2020263671875	1246.683715820312	36.17609786987305	396.3958129882812	1045.5751953125	31.67997550964355	386.2844543457031	927.015869140625	448.935546875	585.0318603515625	874.0112915039062	735.5776977539062	593.5054931640625	563.201171875	189.0007019042969	403.2847900390625	850.8943481445312	334.0935668945312	536.9541625976562	732.9591674804688	47.4461669921875	439.1340637207031	707.8832397460938	88.22340393066406	379.6555786132812	643.1316528320312	100.4188995361328	460.2771606445312	547.9528198242188	217.1558990478516	331.9799194335938	1076.04345703125	762.121826171875	157.6906585693359	1065.908813476562	856.5428466796875	139.5562286376953	nan	nan	nan	
253	2.52	738.9671630859375	936.1505126953125	414.4157409667969	793.952392578125	940.6954345703125	291.8822326660156	767.7942504882812	1046.615600585938	356.3291320800781	995.2120971679688	1243.232788085938	419.8262634277344	759.4741821289062	1171.801025390625	357.1262512207031	794.671875	1448.415405273438	392.103759765625	971.686767578125	1352.9638671875	414.3777465820312	709.8109130859375	1319.07861328125	460.4366455078125	780.643798828125	1395.23486328125	296.5065002441406	890.1096801757812	1425.790161132812	235.8838500976562	883.4555053710938	1309.888793945312	144.0350494384766	879.7315673828125	1107.122924804688	84.38553619384766	786.8919677734375	1085.670776367188	125.5288925170898	1035.368896484375	917.8856811523438	162.2351531982422	1018.266540527344	881.2327880859375	84.98310852050781	926.632568359375	1035.234252929688	82.40122222900391	1048.830688476562	830.6299438476562	96.58380889892578	824.2509765625	1409.954345703125	553.0307006835938	796.0933837890625	1345.705444335938	615.3836059570312	799.523681640625	1066.270751953125	682.2431640625	754.546875	1036.271362304688	649.7677001953125	996.9451293945312	903.7686767578125	677.521484375	948.6922607421875	867.3207397460938	732.4666137695312	822.6734619140625	1014.055480957031	693.5279541015625	1076.993408203125	759.012451171875	708.290283203125	1055.749389648438	840.1253662109375	715.18505859375	995.5411376953125	812.8436279296875	748.9616088867188	893.6171875	1633.866943359375	486.5437622070312	1069.121826171875	1625.022583007812	375.3243713378906	1030.549194335938	1621.10302734375	514.8417358398438	943.7373657226562	1634.819580078125	329.2279968261719	975.5921630859375	889.5752563476562	226.0295562744141	818.2569580078125	877.9220581054688	574.5572509765625	913.5372924804688	922.2603149414062	555.3380737304688	1021.130004882812	923.41796875	301.9942626953125	1184.656494140625	511.5357666015625	363.4012145996094	1113.392944335938	655.799560546875	298.1548156738281	1129.074462890625	34.75358581542969	362.2174987792969	1152.708984375	253.6039733886719	358.1625671386719	1307.909423828125	36.08036041259766	501.6810607910156	1222.89892578125	45.28850555419922	503.2633056640625	1246.778442382812	36.30500030517578	396.5133972167969	1045.61669921875	32.00139236450195	386.3659973144531	943.6117553710938	451.1842956542969	591.5047607421875	884.0992431640625	736.2319946289062	596.6480102539062	578.9708862304688	193.5189514160156	411.0166625976562	867.7156982421875	336.7500915527344	543.7075805664062	747.7685546875	50.82517623901367	447.9562683105469	722.7978515625	91.12602996826172	388.0415344238281	658.3899536132812	105.1258926391602	468.8145141601562	563.5428466796875	220.8799591064453	339.4190673828125	1094.426147460938	760.5046997070312	165.9456634521484	1084.769653320312	855.1758422851562	149.1279754638672	nan	nan	nan	
254	2.53	746.4168090820312	936.7791748046875	415.8895568847656	801.6764526367188	941.9738159179688	293.5159606933594	775.6358032226562	1048.00927734375	358.2923583984375	1003.595397949219	1243.410034179688	423.6822509765625	767.3451538085938	1173.279541015625	359.5662841796875	804.4923095703125	1449.67724609375	394.8811645507812	980.7916259765625	1353.23583984375	418.24951171875	718.523193359375	1320.93896484375	463.1538696289062	790.7420043945312	1396.822509765625	298.8197326660156	901.2068481445312	1426.672729492188	239.1603240966797	897.097412109375	1309.790771484375	148.2410430908203	899.0765991210938	1106.228515625	89.77339172363281	805.4961547851562	1083.463989257812	128.8548278808594	1053.379272460938	917.1053466796875	171.2693328857422	1039.7421875	881.7854614257812	92.65918731689453	946.7587280273438	1034.708251953125	88.80775451660156	1070.339721679688	831.2360229492188	104.7213592529297	833.4222412109375	1410.987426757812	556.09765625	805.1619262695312	1346.624633789062	618.29150390625	808.3305053710938	1066.792114257812	683.96826171875	762.9722900390625	1037.179443359375	651.5025634765625	1004.533630371094	902.6451416015625	679.4627685546875	955.7369995117188	866.597900390625	734.199462890625	831.1316528320312	1014.417419433594	695.191162109375	1083.135620117188	757.149169921875	710.7658081054688	1062.564819335938	838.4757080078125	717.3780517578125	1001.945007324219	811.7761840820312	750.9165649414062	904.6892700195312	1634.508422851562	490.0719909667969	1079.980102539062	1624.3564453125	378.6837158203125	1041.472778320312	1620.755249023438	518.2415161132812	954.652587890625	1635.03857421875	332.7048034667969	983.633544921875	891.015625	228.0056762695312	825.4835815429688	878.2117919921875	576.1983642578125	920.58154296875	922.9973754882812	557.2938842773438	1028.780151367188	924.4775390625	304.2200927734375	1190.024658203125	511.2059326171875	365.4519958496094	1120.035522460938	656.1692504882812	300.2745971679688	1129.139770507812	34.97501373291016	362.2986450195312	1155.312622070312	253.5774688720703	358.9508972167969	1308.052734375	36.16127777099609	501.6416015625	1222.9912109375	45.3881721496582	503.2803039550781	1246.84619140625	36.39645385742188	396.6211547851562	1045.668579101562	32.2730712890625	386.4031677246094	959.670166015625	454.4436645507812	597.7413940429688	893.5230102539062	737.7523803710938	599.7047119140625	595.8333740234375	196.2041168212891	418.9892578125	884.5321044921875	339.9344787597656	550.4993286132812	764.709228515625	54.20079040527344	457.5911865234375	739.6259155273438	93.44187164306641	397.1065673828125	675.3329467773438	108.7981338500977	477.8859252929688	580.1343383789062	222.4884185791016	347.0337219238281	1112.985229492188	760.2722778320312	175.0025024414062	1103.659301757812	855.142822265625	159.2799682617188	nan	nan	nan	
